<svg width="16" height="18" viewBox="0 0 16 18" fill="none" xmlns="http://www.w3.org/2000/svg">
<path d="M13 3H16V18H0V3H3V2C3 1.59 3.15 1.24 3.44 0.94C3.73 0.65 4.09 0.5 4.5 0.5C4.91 0.5 5.27 0.65 5.56 0.94C5.85 1.24 6 1.59 6 2V3H10V2C10 1.59 10.15 1.24 10.44 0.94C10.73 0.65 11.09 0.5 11.5 0.5C11.91 0.5 12.27 0.65 12.56 0.94C12.85 1.24 13 1.59 13 2V3ZM4 2V4.5C3.99878 4.566 4.01088 4.63156 4.03557 4.69278C4.06027 4.75399 4.09705 4.8096 4.14373 4.85627C4.1904 4.90295 4.24601 4.93973 4.30722 4.96443C4.36844 4.98912 4.434 5.00122 4.5 5C4.566 5.00122 4.63156 4.98912 4.69278 4.96443C4.75399 4.93973 4.8096 4.90295 4.85627 4.85627C4.90295 4.8096 4.93973 4.75399 4.96443 4.69278C4.98912 4.63156 5.00122 4.566 5 4.5V2C5 1.86 4.95 1.74 4.85 1.65C4.76 1.55 4.64 1.5 4.5 1.5C4.36 1.5 4.24 1.55 4.15 1.65C4.05 1.74 4 1.86 4 2ZM11 2V4.5C11 4.64 11.05 4.76 11.14 4.86C11.24 4.95 11.36 5 11.5 5C11.64 5 11.76 4.95 11.86 4.86C11.95 4.76 12 4.64 12 4.5V2C12.0012 1.934 11.9891 1.86844 11.9644 1.80722C11.9397 1.74601 11.9029 1.6904 11.8563 1.64373C11.8096 1.59705 11.754 1.56027 11.6928 1.53557C11.6316 1.51088 11.566 1.49878 11.5 1.5C11.434 1.49878 11.3684 1.51088 11.3072 1.53557C11.246 1.56027 11.1904 1.59705 11.1437 1.64373C11.0971 1.6904 11.0603 1.74601 11.0356 1.80722C11.0109 1.86844 10.9988 1.934 11 2ZM15 17V7H1V17H15ZM5 8V10H3V8H5ZM7 8H9V10H7V8ZM11 10V8H13V10H11ZM5 11V13H3V11H5ZM7 11H9V13H7V11ZM11 13V11H13V13H11ZM5 14V16H3V14H5ZM9 16H7V14H9V16ZM13 16H11V14H13V16Z" fill="#DFAA5B"/>
</svg>
